<svg aria-hidden="true" style="position: absolute; width: 0; height: 0; overflow: hidden;" version="1.1" xmlns="http://www.w3.org/2000/svg" xmlns:xlink="http://www.w3.org/1999/xlink">
<defs>
<symbol id="arrow-right" viewBox="0 0 24 32">
<path fill="#fff" style="fill: var(--color1, #fff)" d="M23.077 16c-0.003-0.655-0.152-1.3-0.436-1.89s-0.695-1.109-1.205-1.52l-13.077-10.795c-0.787-0.631-1.736-1.028-2.738-1.146s-2.017 0.048-2.929 0.479c-0.793 0.349-1.468 0.92-1.946 1.643s-0.737 1.568-0.747 2.434v21.59c0.010 0.866 0.269 1.711 0.747 2.434s1.153 1.293 1.946 1.643c0.912 0.431 1.927 0.597 2.929 0.479s1.95-0.515 2.738-1.146l13.077-10.795c0.509-0.411 0.921-0.93 1.205-1.52s0.433-1.236 0.436-1.89zM5.128 5.975l12.359 10.026-12.359 10.256v-20.282z"></path>
</symbol>
<symbol id="arrow-left" viewBox="0 0 24 32">
<path fill="#fff" style="fill: var(--color1, #fff)" d="M0.718 16c0.003-0.655 0.152-1.3 0.436-1.89s0.695-1.109 1.205-1.52l13.077-10.795c0.787-0.631 1.736-1.028 2.738-1.146s2.017 0.048 2.929 0.479c0.793 0.349 1.468 0.92 1.946 1.643s0.737 1.568 0.747 2.434v21.59c-0.010 0.866-0.269 1.711-0.747 2.434s-1.153 1.293-1.946 1.643c-0.912 0.431-1.927 0.597-2.929 0.479s-1.951-0.515-2.738-1.146l-13.077-10.795c-0.509-0.411-0.921-0.93-1.205-1.52s-0.433-1.236-0.436-1.89zM18.667 5.975l-12.359 10.026 12.359 10.256v-20.282z"></path>
</symbol>
</defs>
</svg>
